<svg width="18" height="18" viewBox="0 0 18 18" fill="none" xmlns="http://www.w3.org/2000/svg">
<path d="M15.4286 7.71429H18V10.2857H15.4286V7.71429Z" fill="#5A8CF6"/>
<path d="M12.8571 7.71429H15.4286V12.8571H12.8571V7.71429Z" fill="#5A8CF6"/>
<path d="M10.2857 7.71429H12.8571V15.4286H10.2857V7.71429Z" fill="#5A8CF6"/>
<path d="M7.71429 7.71429H10.2857V18H7.71429V7.71429Z" fill="#5A8CF6"/>
<path d="M5.14286 7.71429H7.71429V15.4286H5.14286V7.71429Z" fill="#5A8CF6"/>
<path d="M2.57143 7.71429H5.14286V12.8571H2.57143V7.71429Z" fill="#5A8CF6"/>
<path d="M0 7.71429H2.57143V10.2857H0V7.71429Z" fill="#5A8CF6"/>
<path d="M15.4286 10.2857H18V7.71429H15.4286V10.2857Z" fill="#5A8CF6"/>
<path d="M12.8571 10.2857H15.4286V5.14286H12.8571V10.2857Z" fill="#5A8CF6"/>
<path d="M10.2857 10.2857H12.8571V2.57143H10.2857V10.2857Z" fill="#5A8CF6"/>
<path d="M7.71429 10.2857H10.2857V0H7.71429V10.2857Z" fill="#5A8CF6"/>
<path d="M5.14286 10.2857H7.71429V2.57143H5.14286V10.2857Z" fill="#5A8CF6"/>
<path d="M2.57143 10.2857H5.14286V5.14286H2.57143V10.2857Z" fill="#5A8CF6"/>
<path d="M0 10.2857H2.57143V7.71429H0V10.2857Z" fill="#5A8CF6"/>
</svg>
